HIERARCHY
ROOT root     
{
	OFFSET 0.0000 0.0000 0.0000
	CHANNELS 6 Xposition Yposition Zposition Zrotation Yrotation Xrotation
	JOINT pelvis   
	{
		OFFSET 0.0000 0.0000 0.0000
		CHANNELS 3 Zrotation Yrotation Xrotation
		JOINT thorax   
		{
			OFFSET 0.0000 23.0750 -5.0000
			CHANNELS 3 Zrotation Yrotation Xrotation
			JOINT rclavicle
			{
				OFFSET 0.0000 28.0009 0.0000
				CHANNELS 3 Zrotation Yrotation Xrotation
				JOINT rhumerus 
				{
					OFFSET -18.5725 5.5939 0.0000
					CHANNELS 3 Zrotation Yrotation Xrotation
					JOINT rradius  
					{
						OFFSET -24.8459 0.0000 0.0000
						CHANNELS 3 Zrotation Yrotation Xrotation
						JOINT rhand    
						{
							OFFSET -24.5477 0.0000 0.0000
							CHANNELS 3 Zrotation Yrotation Xrotation
							End Site
							{
								OFFSET -8.1826 0.0000 0.0000
							}
						}
					}
				}
			}
			JOINT lclavicle
			{
				OFFSET 0.0000 28.0009 0.0000
				CHANNELS 3 Zrotation Yrotation Xrotation
				JOINT lhumerus 
				{
					OFFSET 18.5725 5.5939 0.0000
					CHANNELS 3 Zrotation Yrotation Xrotation
					JOINT lradius  
					{
						OFFSET 24.8459 0.0000 0.0000
						CHANNELS 3 Zrotation Yrotation Xrotation
						JOINT lhand    
						{
							OFFSET 24.5477 0.0000 0.0000
							CHANNELS 3 Zrotation Yrotation Xrotation
							End Site
							{
								OFFSET 8.1826 0.0000 0.0000
							}
						}
					}
				}
			}
			JOINT head     
			{
				OFFSET 0.0000 35.2030 0.0000
				CHANNELS 3 Zrotation Yrotation Xrotation
				End Site
				{
					OFFSET 0.0000 11.7343 0.0000
				}
			}
		}
		JOINT rfemur   
		{
			OFFSET -8.2817 0.0000 0.0000
			CHANNELS 3 Zrotation Yrotation Xrotation
			JOINT rtibia   
			{
				OFFSET 0.0000 -43.3627 0.0000
				CHANNELS 3 Zrotation Yrotation Xrotation
				JOINT rfoot    
				{
					OFFSET 0.0000 -38.2947 0.0000
					CHANNELS 3 Zrotation Yrotation Xrotation
					JOINT rtoes    
					{
						OFFSET 0.0000 0.0000 16.6054
						CHANNELS 3 Zrotation Yrotation Xrotation
						End Site
						{
							OFFSET 0.0000 0.0000 5.5351
						}
					}
				}
			}
		}
		JOINT lfemur   
		{
			OFFSET 8.2817 0.0000 0.0000
			CHANNELS 3 Zrotation Yrotation Xrotation
			JOINT ltibia   
			{
				OFFSET 0.0000 -43.3627 0.0000
				CHANNELS 3 Zrotation Yrotation Xrotation
				JOINT lfoot    
				{
					OFFSET 0.0000 -38.2947 0.0000
					CHANNELS 3 Zrotation Yrotation Xrotation
					JOINT ltoes    
					{
						OFFSET 0.0000 0.0000 16.6054
						CHANNELS 3 Zrotation Yrotation Xrotation
						End Site
						{
							OFFSET 0.0000 0.0000 5.5351
						}
					}
				}
			}
		}
	}
}
MOTION
Frames: 21
Frame Time: .0333333
14.397 84.162 14.311 164.401 -81.2055 -149.233 0 -0 0 -10.8984 4.04356 -9.50107 26.3918 -5.48699 -7.40835e-05 46.6915 15.8633 20.748 -1.09681e-06 77.6148 -8.82103e-07 4.8715 4.68007 0.199205 -28.9088 13.8424 3.1641e-06 -41.4726 0.552142 -9.64791 0 -33.8742 0 15.4198 4.32894 0.5863 -2.14873 5.09629 -4.68708 -12.6386 -6.65843 -6.97313 -0 -0 52.3833 -1.75866e-05 -7.49955 31.0636 -3.88598 -2.74905e-05 -62.584 -7.12495 2.49246 -25.7837 -0 -0 33.6035 -1.81293e-05 13.0708 -6.02231 -1.39533 -7.27336e-06 -34.0049 
13.302 84.417 14.276 166 -81.3892 -150.87 0 -0 0 -10.4479 3.43719 -9.57184 26.4716 -5.52843 3.27599e-05 46.2521 15.693 20.5862 -1.48718e-06 77.0197 -1.18338e-06 5.9659 4.36978 0.2278 -28.8585 13.6574 6.3338e-05 -41.92 0.230907 -8.41998 0 -34.182 0 14.6377 4.36794 0.561312 -1.20321 5.5091 -4.28037 -12.1022 -6.93182 -7.95393 -0 -0 53.134 -1.27403e-05 -9.04365 28.99 -4.41108 -5.18584e-05 -61.0274 -6.8516 2.59712 -24.6383 -0 -0 32.8796 7.59862e-06 12.9652 -5.52859 -1.27073 -1.80179e-05 -34.2689 
12.234 84.682 14.239 167.348 -81.699 -152.212 0 -0 0 -9.98275 2.69809 -9.63794 26.5499 -5.59098 -1.60275e-06 45.7839 15.5186 20.369 -2.39074e-06 76.4379 -2.54809e-06 7.08221 4.1205 0.255099 -28.7827 13.4406 -4.90762e-05 -42.3045 -0.0475474 -6.99299 0 -34.6484 0 13.6759 4.28596 0.514222 -0.233507 5.87301 -3.91908 -11.5247 -7.30664 -8.94995 -0 -0 53.7362 -8.0746e-06 -10.1523 26.908 -4.63318 -4.28572e-06 -59.2173 -6.56493 2.66666 -23.5669 -0 -0 32.1652 -9.04349e-06 12.7639 -4.99949 -1.13091 1.37533e-06 -34.6352 
11.191 84.954 14.2 168.493 -82.1182 -153.313 0 -0 0 -9.50741 1.85704 -9.69541 26.6264 -5.67661 -6.70527e-05 45.3029 15.3348 20.0848 -7.59804e-07 75.8653 -9.7488e-07 8.15148 3.92327 0.279697 -28.6933 13.1842 -1.03735e-05 -42.619 -0.298611 -5.4166 0 -35.2614 0 12.582 4.07847 0.449778 0.735006 6.17959 -3.60254 -10.9212 -7.77992 -9.96928 -0 -0 54.2007 -3.67783e-05 -10.8805 24.9347 -4.63288 2.88186e-05 -57.4286 -6.26814 2.69899 -22.5679 -0 -0 31.4522 4.23595e-06 12.4764 -4.45356 -0.984303 -5.28107e-06 -35.1906 
10.169 85.233 14.162 169.463 -82.6195 -154.208 0 -0 0 -9.02599 0.946459 -9.73897 26.6968 -5.77806 -4.14862e-05 44.8224 15.1297 19.7149 -1.02783e-06 75.3002 -1.3322e-06 9.11255 3.76647 0.300305 -28.601 12.9077 0.000202635 -42.8549 -0.570405 -3.7293 2.30549e-07 -35.9943 -7.09674e-07 11.4172 3.75867 0.375898 1.67936 6.42498 -3.33056 -10.3024 -8.34846 -11.0197 -0 -0 54.5495 -1.71104e-05 -11.2882 23.1253 -4.48243 1.8691e-05 -55.6107 -5.96437 2.69151 -21.6285 -0 -0 30.7375 -2.63004e-07 12.1178 -3.89271 -0.835106 -3.77946e-06 -36.003 
9.1647 85.515 14.117 170.57 -83.202 -155.219 0 -0 0 -8.49357 0.00200053 -9.76232 26.7538 -5.90186 -4.49747e-05 44.3515 14.9145 19.2634 -1.28861e-06 74.7369 -9.84064e-07 9.90716 3.64574 0.316112 -28.5178 12.59 -9.29098e-05 -43.0317 -0.844219 -2.00403 0 -36.8438 0 10.2377 3.33286 0.298603 2.56985 6.6082 -3.10071 -9.62811 -8.97954 -12.0972 -0 -0 54.7741 4.36799e-05 -11.4861 21.5591 -4.27023 2.17231e-05 -54.2019 -5.61874 2.67951 -20.7517 -0 -0 30.039 -2.68422e-06 11.6698 -3.32239 -0.685792 2.40172e-06 -37.1228 
8.1742 85.798 14.072 171.703 -83.8354 -156.24 0 -0 0 -7.94668 -0.9484 -9.76205 26.8029 -6.03644 -7.26807e-05 43.8976 14.6727 18.7188 -0 74.1706 -0 10.4963 3.55068 0.326303 -28.4413 12.2633 8.55354e-05 -43.1469 -1.17581 -0.267804 0 -37.7883 0 9.10127 2.84886 0.226799 3.40255 6.73109 -2.91238 -8.93817 -9.67431 -13.2108 -0 -0 54.8989 -4.32462e-05 -11.5246 20.2165 -4.03035 3.60413e-05 -53.1289 -5.2617 2.64226 -19.9132 -0 -0 29.3352 1.18687e-06 11.1696 -2.71283 -0.535389 -2.53202e-06 -38.5424 
7.1928 86.08 14.026 173.037 -84.4895 -157.46 0 -0 0 -7.37643 -1.8785 -9.73442 26.841 -6.1809 1.52421e-05 43.4673 14.4084 18.0841 -0 73.6042 -0 10.8531 3.48106 0.330803 -28.3678 11.9249 5.79129e-05 -43.228 -1.55741 1.42871 0 -38.8217 0 8.05698 2.33982 0.164804 4.16832 6.797 -2.76433 -8.22203 -10.4083 -14.3528 -0 -0 54.9236 -8.13084e-05 -11.4781 19.0852 -3.7985 2.56914e-06 -52.5537 -4.8866 2.59442 -19.1041 -0 -0 28.6298 -7.73249e-06 10.6219 -2.04724 -0.383798 8.26778e-07 -40.2206 
6.2167 86.359 13.979 174.739 -85.1389 -159.052 0 -0 0 -6.78274 -2.7696 -9.67784 26.8702 -6.3311 -3.78627e-05 43.0637 14.1215 17.3627 -0 73.0343 -0 10.967 3.43886 0.330194 -28.2928 11.5843 1.86928e-05 -43.2919 -1.99751 3.0559 2.68894e-07 -39.9379 -7.40032e-07 7.14459 1.84268 0.114998 4.86527 6.81213 -2.65722 -7.47638 -11.1597 -15.5175 -0 -0 54.8457 8.48012e-05 -11.3983 18.1233 -3.58853 -3.18565e-06 -52.4983 -4.49423 2.54416 -18.312 -0 -0 27.9256 -1.24391e-06 10.0367 -1.30773 -0.231394 9.39605e-07 -42.0772 
5.2431 86.63 13.93 176.927 -85.7853 -161.135 0 -0 0 -6.1755 -3.60918 -9.59283 26.8926 -6.48136 -2.30211e-05 42.6919 13.81 16.5571 -0 72.462 -0 10.8458 3.42915 0.3256 -28.2058 11.2478 -7.65547e-05 -43.3583 -2.49389 4.5918 0 -41.1327 0 6.39379 1.38855 0.0775972 5.49789 6.78298 -2.5923 -6.70682 -11.9083 -16.7006 -0 -0 54.6599 8.34916e-05 -11.316 17.2793 -3.40171 5.56823e-05 -52.9435 -4.09257 2.49469 -17.5286 -0 -0 27.2208 -7.59454e-08 9.42925 -0.481801 -0.0800004 6.73684e-08 -44.0042 
4.2702 86.894 13.879 179.877 -86.3953 -163.991 0 -0 0 -5.55795 -4.39023 -9.48303 26.9084 -6.63208 -4.24234e-05 42.3519 13.4786 15.6768 -1.1398e-06 71.8857 -1.57208e-06 10.5062 3.45956 0.318197 -28.0992 10.9268 -5.12437e-05 -43.4417 -3.04843 6.02842 0 -42.3982 0 5.82421 0.998899 0.0508001 6.07042 6.71797 -2.57319 -5.91256 -12.6299 -17.8923 -0 -0 54.359 -2.81944e-05 -11.2441 16.4927 -3.23024 -1.17846e-05 -53.7631 -3.6847 2.45426 -16.7497 -0 -0 26.5209 -6.86571e-07 8.80845 0.431797 0.0669004 3.08102e-07 -45.8928 
3.2974 87.147 13.828 -176.169 -86.9745 -167.852 0 -0 0 -4.943 -5.10981 -9.35419 26.9202 -6.77928 -6.95001e-05 42.0501 13.1257 14.7253 -7.76437e-07 71.3079 -1.08236e-06 9.98118 3.53786 0.309003 -27.9634 10.6253 1.47887e-05 -43.5535 -3.65232 7.3635 0 -43.7349 0 5.44595 0.682297 0.0325004 6.5902 6.62471 -2.60362 -5.10323 -13.304 -19.0891 -0 -0 53.9358 0.000100445 -11.1753 15.7125 -3.06257 2.07273e-05 -54.7899 -3.28147 2.42383 -15.9738 -0 -0 25.8249 3.44605e-06 8.1899 1.42645 0.205306 1.58804e-06 -47.6413 
2.3253 87.388 13.776 -170.858 -87.5016 -173.071 0 -0 0 -4.3408 -5.76743 -9.21528 26.9273 -6.92102 5.02328e-05 41.7908 12.7489 13.7067 -0 70.728 -0 9.31117 3.67031 0.299005 -27.7934 10.3485 1.28674e-05 -43.6978 -4.29776 8.6024 0 -45.1373 0 5.25976 0.435999 0.0199998 7.06329 6.51132 -2.68744 -4.28923 -13.9062 -20.2852 -0 -0 53.3823 -3.83701e-05 -11.0901 14.9076 -2.88677 3.35685e-05 -55.8207 -2.89196 2.40602 -15.2023 -0 -0 25.134 -2.30092e-06 7.58576 2.48479 0.330797 -4.88412e-06 -49.1846 
1.3552 87.617 13.725 -163.684 -87.9657 179.855 0 -0 0 -3.75942 -6.36323 -9.07602 26.9309 -7.05619 3.39212e-05 41.5804 12.3479 12.6232 -1.02158e-06 70.1496 -1.45495e-06 8.54099 3.85975 0.288304 -27.5874 10.0997 1.90808e-05 -43.8745 -4.97539 9.75387 0 -46.6033 0 5.25789 0.247406 0.0113999 7.49158 6.3859 -2.82845 -3.48151 -14.4148 -21.4811 -0 -0 52.6971 -3.91021e-06 -10.9638 14.0613 -2.69488 -2.23224e-06 -56.6659 -2.52438 2.4024 -14.4407 -0 -0 24.4453 4.53232e-06 7.00747 3.58165 0.439898 -3.32258e-06 -50.4975 
0.3889 87.831 13.674 -153.916 -88.3423 170.2 0 -0 0 -3.20062 -6.89788 -8.94682 26.9316 -7.18889 -2.8678e-05 41.4194 11.932 11.4828 -9.86446e-07 69.5663 -1.42021e-06 7.71352 4.10496 0.2769 -27.3485 9.88365 -6.56044e-05 -44.0737 -5.67921 10.829 3.68804e-07 -48.1269 -8.25877e-07 5.42313 0.0983001 0.00470003 7.87281 6.25773 -3.02932 -2.6902 -14.8034 -22.6762 -0 -0 51.8784 -3.82982e-05 -10.7748 13.1828 -2.48499 3.8379e-05 -57.1133 -2.1822 2.41646 -13.6973 -0 -0 23.7618 3.61535e-06 6.46254 4.68655 0.530304 1.87013e-06 -51.5969 
-0.572 88.03 13.626 -141.205 -88.6355 157.63 0 -0 0 -2.67492 -7.37124 -8.83951 26.9215 -7.30149 -1.80718e-05 41.3252 11.4738 10.2668 -0 68.9939 -0 6.88225 4.39601 0.264492 -27.0756 9.69228 3.25491e-05 -44.2909 -6.38542 11.829 0 -49.7091 0 5.72877 -0.0341002 -0.00170003 8.20494 6.13402 -3.28835 -1.93581 -15.0553 -23.8729 -0 -0 50.935 2.6269e-05 -10.5093 12.2997 -2.26304 3.26002e-05 -57.1384 -1.87717 2.44183 -12.9787 -0 -0 23.0764 2.68911e-06 5.96421 5.77259 0.601995 2.02575e-06 -52.5314 
-1.5267 88.214 13.577 -125.481 -88.8202 142.078 0 -0 0 -2.16759 -7.78322 -8.76009 26.9055 -7.41673 5.11913e-07 41.2861 11.0157 9.00152 -6.52275e-07 68.4143 -9.59559e-07 6.07016 4.72344 0.2506 -26.786 9.53751 6.87287e-05 -44.5069 -7.0992 12.7658 0 -51.346 0 6.1418 -0.1688 -0.00910019 8.47583 6.02518 -3.60608 -1.21862 -15.1528 -25.0714 -0 -0 49.867 3.88729e-06 -10.171 11.4454 -2.03886 1.64187e-05 -56.6936 -1.60046 2.48484 -12.2937 -0 -0 22.3934 -5.375e-06 5.50845 6.81141 0.655296 -6.95193e-06 -53.3841 
-2.4752 88.382 13.53 -108.967 -88.8898 125.767 0 -0 0 -1.68051 -8.13435 -8.71551 26.8758 -7.5123 1.5708e-06 41.3177 10.5288 7.66439 -6.31467e-07 67.8384 -9.39053e-07 5.31839 5.06665 0.235502 -26.4839 9.40669 -5.12559e-05 -44.7131 -7.79175 13.6284 0 -53.035 0 6.62091 -0.322906 -0.0187 8.67703 5.93832 -3.97481 -0.55432 -15.0915 -26.2715 -0 -0 48.6821 -3.1971e-06 -9.77217 10.6562 -1.82412 -6.76388e-06 -55.9302 -1.35658 2.53616 -11.6421 -0 -0 21.7094 -4.54005e-06 5.10154 7.78755 0.693101 -2.68603e-07 -54.2443 
-3.4193 88.533 13.484 -94.4377 -88.902 111.479 0 -0 0 -1.20524 -8.42727 -8.70666 26.8317 -7.59112 2.41982e-05 41.4133 10.0285 6.26066 -0 67.262 -0 4.64455 5.40481 0.219302 -26.1783 9.30097 -3.38732e-05 -44.8994 -8.45175 14.413 0 -54.7769 0 7.12422 -0.505299 -0.0314995 8.7977 5.8817 -4.38798 0.0510486 -14.8741 -27.4689 -0 -0 47.3858 2.85687e-06 -9.3352 9.95217 -1.62737 2.00288e-05 -55.0222 -1.14121 2.59035 -11.0253 -0 -0 21.0236 5.50033e-06 4.73947 8.69267 0.717907 -4.42094e-07 -55.194 
-4.3616 88.667 13.436 -83.4258 -88.853 100.736 0 -0 0 -0.721731 -8.66699 -8.73173 26.7779 -7.66906 -7.39922e-05 41.5603 9.55188 4.81304 -5.92567e-07 66.6762 -9.00786e-07 4.04746 5.71783 0.202205 -25.885 9.22828 -6.83517e-05 -45.0503 -9.07994 15.116 0 -56.5676 0 7.61013 -0.717003 -0.0476994 8.82499 5.86281 -4.83821 0.605946 -14.5118 -28.651 -0 -0 45.9696 -8.31856e-07 -8.88986 9.33817 -1.45386 -1.70346e-05 -54.1418 -0.939003 2.64674 -10.4423 -0 -0 20.3448 -3.19394e-07 4.40803 9.52622 0.730893 1.90864e-06 -56.2996 
-5.3066 88.782 13.388 -76.006 -88.7484 93.6065 0 -0 0 -0.228302 -8.86153 -8.78601 26.7074 -7.71487 2.52876e-05 41.7646 9.06281 3.29162 -8.83029e-07 66.0966 -5.74493e-07 3.54644 5.98038 0.185302 -25.6048 9.16944 -3.41538e-05 -45.1646 -9.63887 15.7123 0 -58.4172 0 8.03882 -0.952606 -0.0668992 8.75476 5.88467 -5.31162 1.10707 -14.0322 -29.8041 -0 -0 44.43 6.34897e-06 -8.45899 8.80811 -1.30457 2.27125e-05 -53.5839 -0.748404 2.69182 -9.88311 -0 -0 19.6743 8.35134e-06 4.10057 10.3001 0.734396 6.04448e-06 -57.5878 
